<?xml version="1.0" standalone="no"?>
<!DOCTYPE svg PUBLIC "-//W3C//DTD SVG 20010904//EN"
 "http://www.w3.org/TR/2001/REC-SVG-20010904/DTD/svg10.dtd">
<svg version="1.0" xmlns="http://www.w3.org/2000/svg"
 width="600.000000pt" height="600.000000pt" viewBox="0 0 600.000000 600.000000"
 preserveAspectRatio="xMidYMid meet">
<metadata>
Created by potrace 1.11, written by Peter Selinger 2001-2013
</metadata>
<g transform="translate(0.000000,600.000000) scale(0.100000,-0.100000)"
fill="#000000" stroke="none">
<path d="M3320 4383 c8 -3 21 -11 29 -17 11 -8 13 -8 8 1 -4 6 -1 14 5 16 7 3
-3 5 -22 5 -19 0 -28 -2 -20 -5z"/>
<path d="M3400 4370 c8 -5 22 -10 30 -10 13 0 13 1 0 10 -8 5 -22 10 -30 10
-13 0 -13 -1 0 -10z"/>
<path d="M3470 4362 c0 -6 6 -13 13 -16 14 -6 -50 2 -74 10 -9 2 -19 -2 -23
-11 -5 -15 30 -21 122 -18 17 0 32 -3 32 -7 0 -7 24 -12 125 -26 11 -1 39 -9
63 -18 l42 -15 0 25 c0 31 -32 44 -111 47 -31 1 -55 5 -53 8 2 4 -17 9 -41 12
-25 4 -56 9 -70 13 -14 4 -25 2 -25 -4z m104 -30 c3 -5 -1 -9 -9 -9 -8 0 -12
4 -9 9 3 4 7 8 9 8 2 0 6 -4 9 -8z"/>
<path d="M3285 4349 c-14 -5 -5 -8 29 -8 27 -1 47 2 44 5 -10 9 -52 11 -73 3z"/>
<path d="M2595 4334 c-77 -7 -155 -24 -155 -35 0 -6 8 -8 18 -5 93 29 439 34
729 11 285 -23 453 -51 453 -76 0 -5 10 -7 23 -4 38 10 90 -33 99 -80 8 -44
11 -531 3 -524 -2 3 -5 90 -6 194 l-1 190 -30 -60 c-17 -33 -33 -54 -35 -47
-3 6 -8 10 -13 7 -4 -3 -11 6 -14 20 -7 28 -21 33 -29 10 -4 -8 6 -24 22 -37
15 -13 28 -32 28 -41 0 -19 -12 -23 -22 -7 -3 6 -18 7 -33 4 -19 -4 -23 -3
-13 4 10 8 6 11 -18 17 -18 4 -35 4 -38 1 -4 -3 4 -6 17 -6 13 0 21 -3 17 -6
-3 -3 -20 -3 -38 1 -20 5 -27 10 -19 15 8 5 5 9 -10 13 -12 3 -19 3 -16 0 6
-7 -19 -33 -32 -33 -6 0 18 -28 52 -63 35 -34 71 -77 80 -95 19 -37 13 -45 -6
-8 -7 13 -40 48 -72 77 -33 30 -57 49 -53 43 3 -6 0 -11 -8 -11 -8 0 -12 4 -9
8 5 9 -55 43 -63 36 -2 -3 5 -8 16 -12 12 -3 21 -10 21 -15 0 -5 -6 -7 -14 -4
-7 3 -16 -2 -19 -11 -4 -10 -15 -14 -29 -11 -13 2 -41 0 -63 -4 -35 -7 -36 -8
-10 -9 28 -1 46 -10 109 -54 15 -11 48 -20 81 -22 30 -2 62 -8 71 -13 22 -12
28 -43 7 -35 -12 5 -12 7 -1 15 8 5 -4 7 -33 6 -27 -2 -46 -8 -46 -15 0 -7 5
-9 11 -6 6 4 5 -1 -3 -11 -12 -14 -24 -16 -65 -11 -43 6 -370 56 -444 69 -13
2 -20 0 -15 -4 8 -8 288 -60 423 -79 58 -8 367 -41 386 -41 7 0 3 415 -5 512
-9 108 -19 128 -81 155 -113 48 -432 82 -810 88 -135 1 -267 1 -295 -1z m1114
-511 c-13 -15 -12 -15 8 -5 29 16 37 15 21 -2 -7 -8 -20 -12 -29 -11 -9 2 -27
-6 -39 -17 l-22 -20 4 28 c2 20 10 30 28 35 40 11 43 10 29 -8z m-152 -177
l21 -23 -27 0 c-14 0 -20 2 -13 4 10 4 9 9 -4 24 -9 10 -13 19 -7 19 5 0 19
-11 30 -24z m146 -33 c-7 -2 -19 -2 -25 0 -7 3 -2 5 12 5 14 0 19 -2 13 -5z"/>
<path d="M2406 4272 l-19 -27 24 22 c12 12 21 24 18 27 -2 2 -13 -8 -23 -22z"/>
<path d="M3760 4236 c0 -2 8 -10 18 -17 15 -13 16 -12 3 4 -13 16 -21 21 -21
13z"/>
<path d="M2452 4179 c-13 -16 -37 -55 -54 -86 -17 -32 -49 -87 -71 -123 -22
-36 -55 -92 -73 -125 -36 -64 -44 -68 -19 -8 23 54 17 54 -11 0 -14 -27 -23
-51 -21 -53 2 -2 28 1 57 8 46 10 54 16 68 47 8 20 28 64 44 98 15 34 28 64
28 66 0 2 10 26 22 53 12 27 23 51 23 54 1 3 11 24 23 47 26 50 17 62 -16 22z
m-2 -39 c0 -5 -2 -10 -4 -10 -3 0 -8 5 -11 10 -3 6 -1 10 4 10 6 0 11 -4 11
-10z"/>
<path d="M3523 4193 c9 -2 23 -2 30 0 6 3 -1 5 -18 5 -16 0 -22 -2 -12 -5z"/>
<path d="M3830 4195 c0 -25 17 -35 48 -29 41 8 42 22 1 16 -20 -3 -34 0 -40 9
-5 8 -9 10 -9 4z"/>
<path d="M3927 4065 c28 -109 22 -135 -21 -92 -13 14 -27 22 -30 19 -3 -3 -6
10 -6 29 0 19 -5 41 -10 49 -6 10 -9 -4 -7 -46 1 -34 5 -60 10 -57 4 2 7 -22
8 -54 1 -32 4 -115 7 -185 4 -70 4 -124 0 -120 -4 4 -9 43 -11 87 l-3 80 -2
-92 -2 -93 33 0 c21 0 28 3 19 9 -9 5 11 8 50 6 85 -2 87 -1 77 43 -5 20 -20
91 -35 157 -31 145 -83 337 -94 348 -4 5 4 -35 17 -88z m-40 -182 c-2 -16 -4
-3 -4 27 0 30 2 43 4 28 2 -16 2 -40 0 -55z m103 -78 c0 -16 -49 -45 -75 -45
-13 0 -16 -9 -13 -42 3 -40 5 -43 38 -48 40 -7 60 -17 60 -31 0 -12 -52 -12
-85 1 -26 10 -26 12 -24 88 l3 78 35 3 c19 1 37 4 40 6 9 10 21 4 21 -10z m35
-165 c3 -5 1 -10 -4 -10 -6 0 -11 5 -11 10 0 6 2 10 4 10 3 0 8 -4 11 -10z"/>
<path d="M2922 4143 c-13 -5 -7 -23 9 -23 6 0 7 6 3 13 -5 8 -2 8 9 -2 15 -12
17 -11 17 3 0 16 -13 19 -38 9z"/>
<path d="M3040 4140 c0 -5 -13 -10 -29 -10 -17 0 -31 -6 -35 -15 -3 -9 -11
-15 -18 -14 -7 1 -33 0 -58 -1 l-45 -3 45 -6 c25 -3 67 -4 95 -1 46 5 50 7 52
33 1 15 0 27 -3 27 -2 0 -4 -4 -4 -10z m-17 -27 c-7 -2 -19 -2 -25 0 -7 3 -2
5 12 5 14 0 19 -2 13 -5z"/>
<path d="M3847 4111 c-4 -17 -3 -21 5 -13 5 5 8 16 6 23 -3 8 -7 3 -11 -10z"/>
<path d="M3813 3985 c0 -44 2 -61 4 -37 2 23 2 59 0 80 -2 20 -4 1 -4 -43z"/>
<path d="M3985 3971 c4 -14 22 -97 40 -184 18 -87 36 -161 38 -164 3 -3 21 -2
39 3 18 4 27 9 20 12 -10 3 -8 7 5 17 26 19 22 46 -14 85 -39 42 -31 50 47 49
107 -2 122 -17 100 -99 -10 -39 -14 -42 -38 -37 -15 3 -35 9 -44 12 -14 6 -18
2 -18 -15 0 -18 4 -21 28 -16 15 3 74 10 131 16 57 6 118 13 135 16 17 2 82 8
144 13 62 6 116 12 121 15 11 7 155 8 205 2 47 -6 60 -16 20 -16 -42 0 -426
-38 -455 -44 -13 -4 -93 -12 -178 -20 -155 -15 -170 -20 -171 -57 0 -28 -52
-32 -72 -6 -17 21 -16 22 10 25 15 2 31 8 36 12 10 10 -95 6 -124 -3 -39 -13
-137 -16 -150 -4 -10 9 -11 9 -6 0 9 -15 8 -15 -184 -3 -133 8 -351 38 -540
74 -41 8 -92 12 -112 10 -22 -3 -40 0 -44 7 -5 8 -3 9 6 4 8 -5 11 -4 7 3 -4
5 -16 8 -27 5 -13 -3 -20 0 -21 8 0 8 -4 4 -9 -8 -5 -13 -17 -23 -27 -22 -16
0 -16 1 1 8 17 7 16 9 -10 19 -16 7 -49 17 -74 22 -44 9 -44 9 15 6 l60 -4
-45 14 c-54 18 -87 20 -160 11 -37 -5 -49 -4 -35 2 11 5 35 10 54 10 19 1 32
4 28 7 -3 4 -64 8 -134 10 -77 2 -118 0 -103 -5 14 -5 -49 -7 -145 -4 -107 3
-179 1 -195 -5 -20 -8 2 -11 100 -13 l125 -3 -160 -6 c-88 -4 -216 -15 -285
-24 -68 -10 -134 -15 -147 -11 -14 3 -23 1 -23 -6 0 -9 21 -10 78 -4 174 17
268 21 290 13 13 -4 42 -8 65 -9 32 -1 37 -3 18 -8 -23 -6 -23 -7 13 -26 20
-11 36 -23 36 -27 0 -4 -136 -9 -302 -11 -167 -2 -323 -7 -348 -11 -141 -21
-322 -57 -347 -68 -12 -6 -28 -8 -35 -6 -7 3 -29 0 -48 -7 l-35 -12 44 -7 c23
-3 61 -16 83 -27 22 -11 37 -16 33 -10 -4 8 2 7 19 0 14 -7 23 -15 21 -19 -2
-4 8 -12 23 -19 25 -11 26 -10 8 4 -11 8 -15 15 -9 15 6 0 20 -12 30 -26 10
-14 25 -26 33 -27 8 -1 16 -7 18 -12 2 -6 10 -17 17 -25 26 -29 45 -89 45
-144 0 -48 -14 -213 -25 -286 -2 -14 -4 -42 -4 -64 l-1 -38 -20 23 c-16 20
-19 21 -20 7 0 -10 5 -18 10 -18 11 0 13 -39 4 -64 -3 -9 -10 -14 -14 -11 -5
3 -11 -30 -15 -72 -3 -43 -8 -93 -11 -110 -4 -25 -1 -33 11 -33 8 0 15 -4 15
-10 0 -17 -18 -11 -34 11 l-14 21 -4 -23 c-2 -20 -9 -24 -38 -25 -35 -1 -35
-1 -2 3 17 2 32 8 32 13 0 14 -44 22 -100 18 -27 -1 -50 0 -50 5 0 4 -16 7
-35 7 -34 0 -47 -13 -22 -23 6 -3 -6 -5 -28 -5 -22 0 -30 3 -18 5 12 2 24 11
27 19 5 13 -2 15 -39 13 -24 -2 -47 0 -51 4 -4 4 -25 7 -46 7 -36 0 -214 67
-205 77 2 2 26 -6 52 -17 26 -11 55 -22 64 -23 9 -1 21 -6 28 -10 6 -4 15 -2
19 4 3 6 0 15 -7 20 -10 6 -11 9 -1 9 22 0 13 19 -13 26 -14 3 -22 11 -19 16
4 6 10 6 17 -1 18 -18 26 -13 24 16 -1 14 -9 29 -16 31 -10 3 -12 0 -8 -12 4
-9 2 -16 -3 -16 -6 0 -10 9 -10 19 0 14 -13 24 -43 35 -25 10 -30 13 -12 10
17 -4 38 -7 48 -8 9 0 17 -3 17 -7 0 -4 7 -9 15 -13 9 -3 15 0 15 9 0 9 -25
22 -65 34 -66 21 -129 50 -109 51 6 0 27 -6 45 -14 53 -21 89 -28 89 -16 0 6
-6 13 -12 15 -73 25 -129 48 -126 51 2 1 34 -8 71 -21 55 -20 67 -22 67 -10 0
8 -7 15 -15 15 -19 0 -97 31 -91 37 2 2 21 -3 41 -11 44 -19 65 -20 65 -5 0 6
-7 9 -15 5 -8 -3 -15 -1 -15 3 0 5 -12 14 -27 20 l-28 10 30 -2 c17 -1 32 -5
35 -9 3 -3 17 -9 32 -13 25 -6 27 -5 25 20 -2 25 -10 30 -85 55 -46 15 -86 31
-89 34 -10 10 24 7 54 -5 65 -26 83 -28 83 -12 0 9 -6 13 -15 9 -8 -3 -15 -1
-15 4 0 6 -6 10 -12 10 -7 0 -31 9 -53 20 -22 11 -33 19 -25 19 37 -3 43 3 15
16 -20 9 -24 14 -12 14 22 1 22 10 -1 27 -12 10 -7 10 21 -1 21 -9 42 -13 47
-10 5 3 11 1 15 -5 10 -16 28 -12 21 5 -5 13 0 15 29 9 24 -4 35 -3 35 6 0 7
-7 10 -15 6 -8 -3 -15 -1 -15 5 0 6 -7 9 -15 6 -8 -4 -17 -2 -20 3 -3 5 -30
16 -61 25 -30 9 -52 20 -49 26 4 5 11 7 16 3 13 -7 7 19 -6 28 -16 12 14 9 36
-3 12 -6 28 -8 37 -4 14 5 11 9 -13 21 -21 10 -23 12 -6 8 37 -9 21 17 -20 33
-27 11 -29 12 -7 8 16 -3 39 -8 53 -11 15 -4 25 -2 25 5 0 6 -20 16 -45 22
-25 6 -45 15 -45 20 0 4 19 2 41 -6 49 -17 49 -18 49 -7 0 5 -17 14 -37 21
-21 7 -43 14 -50 17 -6 3 -14 -9 -19 -28 -4 -18 -9 -27 -11 -21 -3 7 3 27 11
44 9 18 16 38 16 45 0 33 159 134 216 138 12 0 20 4 17 9 -2 4 4 7 13 7 15 0
14 4 -6 25 -17 19 -21 28 -13 36 6 6 9 18 6 26 -4 10 -8 11 -13 3 -4 -6 -85
-22 -181 -36 -213 -30 -340 -56 -439 -89 -96 -32 -110 -41 -81 -50 34 -10 76
-51 112 -106 25 -40 29 -53 19 -59 -11 -7 -11 -12 -2 -23 7 -7 9 -17 5 -20 -3
-4 -1 -12 4 -19 6 -7 14 -38 17 -68 5 -39 4 -51 -3 -40 -6 8 -11 10 -11 4 0
-5 4 -14 10 -20 6 -6 2 -35 -10 -79 -15 -57 -18 -62 -16 -30 1 22 6 46 10 54
7 10 4 11 -12 2 -11 -6 -25 -11 -31 -11 -14 0 -42 55 -33 65 4 5 1 5 -5 1 -7
-4 -13 -2 -13 3 0 6 4 11 9 11 12 0 20 49 10 56 -5 3 -9 -6 -9 -20 0 -14 -5
-26 -11 -26 -7 0 -9 10 -6 26 4 20 1 24 -12 18 -41 -17 -49 -14 -80 23 -18 21
-29 29 -25 19 5 -12 4 -17 -3 -13 -5 3 -10 0 -10 -8 0 -8 4 -15 9 -15 4 0 8 5
8 10 0 6 13 -4 29 -22 24 -27 31 -30 44 -20 12 10 16 10 20 -1 3 -7 -2 -13
-12 -13 -9 -1 -25 -4 -36 -8 -14 -6 -16 -5 -7 2 11 7 10 11 -4 16 -10 4 -15 4
-12 0 4 -4 1 -16 -7 -28 -17 -23 -20 -50 -5 -41 6 4 8 10 5 15 -6 10 16 18 62
24 18 2 30 -1 27 -5 -3 -5 -1 -9 4 -9 5 0 20 -20 33 -44 20 -38 26 -43 42 -34
17 9 17 7 7 -12 -6 -12 -9 -29 -6 -37 5 -12 4 -13 -7 -5 -17 14 -27 5 -26 -22
0 -21 1 -21 9 -1 7 14 8 8 3 -19 -4 -28 -3 -37 6 -32 24 15 10 -14 -15 -30
-18 -12 -28 -14 -33 -6 -4 7 -12 8 -21 2 -8 -6 -25 -10 -37 -10 -13 0 -23 -6
-23 -14 0 -8 -12 -19 -27 -24 l-28 -10 30 -7 c16 -5 36 -15 44 -23 11 -11 30
-13 83 -8 57 6 68 5 68 -8 0 -20 27 -27 95 -25 62 2 77 -8 73 -51 -3 -23 -7
-25 -50 -25 -54 1 -58 -2 -25 -15 36 -16 -82 -2 -217 26 -66 13 -122 21 -125
18 -3 -2 5 -7 17 -11 16 -4 20 -9 12 -18 -20 -24 300 -82 351 -63 25 10 58
-10 38 -22 -6 -4 15 -11 47 -15 33 -4 83 -13 112 -20 29 -8 59 -12 67 -8 9 3
21 1 28 -5 6 -6 30 -13 51 -17 30 -6 37 -5 31 5 -4 7 2 6 16 -4 13 -8 65 -22
114 -30 167 -28 310 -55 345 -65 49 -14 423 -78 495 -85 33 -3 89 -2 125 3 55
7 59 9 25 11 -30 2 -17 6 55 17 52 9 114 16 137 17 24 0 37 3 30 5 -14 5 116
40 151 40 14 1 22 7 22 19 0 15 -7 17 -42 13 -32 -3 -38 -6 -23 -11 l20 -7
-20 -6 c-71 -20 -130 -28 -158 -23 -21 4 -27 3 -18 -3 16 -11 -91 -27 -108
-17 -5 4 -12 2 -16 -3 -7 -12 -198 -6 -300 9 -38 6 -88 12 -110 15 -22 3 -78
12 -125 20 -101 19 -147 26 -176 29 -29 2 -54 24 -54 48 0 18 4 19 53 12 28
-5 64 -8 79 -8 15 1 25 -3 22 -7 -3 -5 1 -6 8 -4 8 3 50 -1 93 -10 95 -18 95
-18 95 -5 0 6 -3 9 -7 9 -5 -1 -10 0 -13 1 -3 1 -43 10 -90 20 -57 12 -89 15
-97 8 -12 -10 -53 -2 -53 10 1 27 19 29 105 11 50 -10 98 -18 109 -19 16 0 17
2 5 18 -13 15 -12 16 3 3 10 -7 16 -17 13 -21 -5 -8 164 -38 285 -50 58 -5
117 -4 185 6 104 13 314 57 358 73 14 5 27 7 30 4 10 -10 -5 -68 -21 -80 -9
-8 -15 -27 -14 -47 1 -20 -3 -38 -9 -42 -24 -14 -263 -73 -348 -85 -70 -10
-98 -10 -129 -1 -22 7 -55 11 -73 11 -19 -1 -26 -3 -16 -6 9 -2 17 -8 17 -12
0 -11 -119 5 -345 45 -110 20 -235 42 -278 50 -56 10 -84 11 -98 3 -15 -7 -46
-5 -121 10 -106 22 -149 26 -112 11 11 -4 56 -13 99 -20 101 -15 125 -25 125
-49 0 -15 9 -21 38 -26 20 -3 64 -12 97 -20 86 -20 267 -51 440 -76 208 -30
310 -24 520 30 88 23 169 44 180 48 17 5 18 4 7 -9 -7 -9 -62 -28 -122 -44
-61 -15 -106 -30 -102 -33 5 -3 14 -51 21 -106 30 -231 98 -343 246 -404 162
-68 333 -44 446 61 85 78 163 237 189 383 18 108 17 105 58 105 20 0 73 11
117 25 68 21 92 24 161 18 96 -7 135 4 218 59 50 34 88 47 260 92 110 29 226
59 256 66 30 6 147 36 260 66 113 29 217 56 231 59 25 6 27 4 39 -53 25 -118
81 -187 174 -214 61 -18 175 -15 213 5 104 55 183 261 183 478 l0 76 43 -8
c23 -4 49 -10 58 -14 15 -6 15 1 -3 66 -36 135 -87 223 -119 204 -8 -5 -10 -4
-5 3 5 9 -7 12 -41 12 -89 0 -159 -33 -202 -96 -40 -58 -115 -246 -113 -284 3
-48 -9 -62 -56 -66 -22 -2 -123 -24 -224 -49 -100 -25 -271 -66 -378 -90 -107
-25 -220 -51 -250 -59 -30 -8 -154 -38 -275 -67 -217 -50 -303 -78 -337 -107
-17 -14 -18 -13 -18 17 0 17 -9 64 -19 104 -11 39 -26 106 -35 147 -32 167
-85 257 -173 297 -51 24 -63 25 -152 20 -101 -6 -160 -21 -232 -58 -99 -50
-149 -107 -220 -249 -49 -100 -47 -96 -59 -84 -13 13 8 66 49 126 18 27 25 45
19 49 -29 18 124 179 211 223 107 55 275 70 335 30 15 -9 29 -14 32 -11 8 8
26 -7 93 -73 68 -67 104 -152 129 -307 9 -56 20 -103 25 -103 4 0 92 20 195
44 185 44 258 60 947 212 193 42 356 80 363 84 8 4 33 63 57 132 24 69 50 138
58 154 37 70 117 114 207 114 49 0 85 -21 132 -75 22 -25 53 -105 74 -189 16
-63 17 -64 43 -56 51 14 141 63 146 79 2 9 6 30 7 47 2 28 7 32 61 49 53 17
58 21 52 42 -3 13 -1 23 4 23 5 0 7 32 4 71 -3 51 0 77 10 92 8 12 15 45 15
72 0 34 -2 43 -7 30 -5 -12 -10 23 -13 90 -8 165 -15 176 -123 205 -46 12
-299 33 -397 32 -50 0 -65 3 -62 13 3 7 -8 32 -24 56 -16 24 -44 68 -62 97
-18 29 -41 57 -52 63 -30 16 -119 14 -153 -3 -50 -26 -619 -13 -888 21 l-58 7
6 -25z m840 -47 c-26 -20 -55 -36 -55 -30 0 5 63 46 70 46 3 -1 -4 -8 -15 -16z
m-758 -10 c-3 -3 -12 -4 -19 -1 -8 3 -5 6 6 6 11 1 17 -2 13 -5z m111 -51
c-10 -2 -28 -2 -40 0 -13 2 -5 4 17 4 22 1 32 -1 23 -4z m537 -3 c-3 -5 -12
-10 -18 -10 -7 0 -6 4 3 10 19 12 23 12 15 0z m-322 -77 c-7 -2 -19 -2 -25 0
-7 3 -2 5 12 5 14 0 19 -2 13 -5z m-1784 -39 c2 -2 -16 -4 -42 -4 -25 0 -48 4
-51 9 -5 8 84 3 93 -5z m2581 12 c0 -11 -19 -15 -25 -6 -3 5 1 10 9 10 9 0 16
-2 16 -4z m-100 -26 c0 -5 -4 -10 -10 -10 -5 0 -10 5 -10 10 0 6 5 10 10 10 6
0 10 -4 10 -10z m-2627 -7 c-13 -2 -33 -2 -45 0 -13 2 -3 4 22 4 25 0 35 -2
23 -4z m275 0 c-10 -2 -26 -2 -35 0 -10 3 -2 5 17 5 19 0 27 -2 18 -5z m-165
-10 c-7 -2 -21 -2 -30 0 -10 3 -4 5 12 5 17 0 24 -2 18 -5z m80 -10 c-7 -2
-21 -2 -30 0 -10 3 -4 5 12 5 17 0 24 -2 18 -5z m70 -10 c-7 -2 -19 -2 -25 0
-7 3 -2 5 12 5 14 0 19 -2 13 -5z m60 -10 c-7 -2 -19 -2 -25 0 -7 3 -2 5 12 5
14 0 19 -2 13 -5z m60 -10 c-7 -2 -19 -2 -25 0 -7 3 -2 5 12 5 14 0 19 -2 13
-5z m-369 -29 c8 -21 -28 -18 -47 4 -16 18 -15 18 12 14 16 -2 32 -10 35 -18z
m159 0 c53 -4 97 -11 97 -17 0 -5 8 -6 18 -1 16 7 148 24 182 23 8 0 35 0 60
1 49 1 156 -15 235 -35 l50 -13 -52 -3 c-28 -2 -49 -1 -46 4 5 9 -10 9 -31 1
-9 -3 -13 -10 -10 -15 3 -5 1 -9 -5 -9 -5 0 -11 4 -13 10 -2 5 -25 6 -60 1
-31 -4 -55 -5 -53 -1 3 6 -154 40 -183 40 -7 0 -12 -7 -12 -15 0 -13 -7 -15
-37 -9 -21 4 -46 11 -55 15 -24 13 -117 12 -98 -1 10 -7 -1 -8 -35 -3 -27 3
-61 15 -75 26 l-25 20 25 -6 c14 -4 69 -10 123 -13z m-126 -30 c-3 -3 -12 -4
-19 -1 -8 3 -5 6 6 6 11 1 17 -2 13 -5z m170 -10 c-3 -3 -12 -4 -19 -1 -8 3
-5 6 6 6 11 1 17 -2 13 -5z m691 -20 c6 -11 11 -13 16 -5 4 6 11 11 17 11 5 0
0 -9 -11 -20 -21 -21 -35 -27 -25 -10 3 6 -4 10 -17 11 -22 0 -22 1 -3 9 17 6
14 8 -15 12 l-35 5 32 1 c20 1 35 -4 41 -14z m-468 -20 c-38 -8 -90 -9 -90 -2
0 4 24 7 53 7 28 -1 45 -3 37 -5z m593 -1 c-7 -2 -19 -2 -25 0 -7 3 -2 5 12 5
14 0 19 -2 13 -5z m-755 -10 c-32 -2 -84 -2 -115 0 -32 2 -6 3 57 3 63 0 89
-1 58 -3z m909 1 c-3 -3 -12 -4 -19 -1 -8 3 -5 6 6 6 11 1 17 -2 13 -5z
m-1149 -11 c-26 -2 -71 -2 -100 0 -29 2 -8 3 47 3 55 0 79 -1 53 -3z m1059 1
c-3 -3 -12 -4 -19 -1 -8 3 -5 6 6 6 11 1 17 -2 13 -5z m-270 -10 c-3 -3 -12
-4 -19 -1 -8 3 -5 6 6 6 11 1 17 -2 13 -5z m180 0 c-3 -3 -12 -4 -19 -1 -8 3
-5 6 6 6 11 1 17 -2 13 -5z m-230 -10 c-3 -3 -12 -4 -19 -1 -8 3 -5 6 6 6 11
1 17 -2 13 -5z m156 -1 c-7 -2 -21 -2 -30 0 -10 3 -4 5 12 5 17 0 24 -2 18 -5z
m-95 -10 c-10 -2 -26 -2 -35 0 -10 3 -2 5 17 5 19 0 27 -2 18 -5z m199 1 c-3
-3 -12 -4 -19 -1 -8 3 -5 6 6 6 11 1 17 -2 13 -5z m-304 -11 c-7 -2 -21 -2
-30 0 -10 3 -4 5 12 5 17 0 24 -2 18 -5z m200 0 c-7 -2 -19 -2 -25 0 -7 3 -2
5 12 5 14 0 19 -2 13 -5z m-300 -10 c-7 -2 -19 -2 -25 0 -7 3 -2 5 12 5 14 0
19 -2 13 -5z m170 0 c-7 -2 -21 -2 -30 0 -10 3 -4 5 12 5 17 0 24 -2 18 -5z
m-238 -13 c13 -6 15 -9 5 -9 -8 0 -22 4 -30 9 -18 12 -2 12 25 0z m-62 -17
c-7 -2 -21 -2 -30 0 -10 3 -4 5 12 5 17 0 24 -2 18 -5z m-65 -10 c-10 -2 -28
-2 -40 0 -13 2 -5 4 17 4 22 1 32 -1 23 -4z m-85 -10 c-7 -2 -21 -2 -30 0 -10
3 -4 5 12 5 17 0 24 -2 18 -5z m-65 -10 c-10 -2 -26 -2 -35 0 -10 3 -2 5 17 5
19 0 27 -2 18 -5z m-75 -10 c-7 -2 -21 -2 -30 0 -10 3 -4 5 12 5 17 0 24 -2
18 -5z m-65 -10 c-10 -2 -26 -2 -35 0 -10 3 -2 5 17 5 19 0 27 -2 18 -5z m-65
-10 c-7 -2 -21 -2 -30 0 -10 3 -4 5 12 5 17 0 24 -2 18 -5z m-60 -10 c-7 -2
-19 -2 -25 0 -7 3 -2 5 12 5 14 0 19 -2 13 -5z m784 1 c-3 -3 -12 -4 -19 -1
-8 3 -5 6 6 6 11 1 17 -2 13 -5z m1406 -13 c4 -1 7 -3 7 -6 0 -3 0 -9 0 -15 0
-5 -7 -6 -17 -3 -9 4 -14 2 -11 -3 4 -5 -24 -9 -63 -9 -75 0 -100 21 -28 23
22 1 47 9 55 17 11 10 21 12 32 6 9 -5 20 -9 25 -10z m-2246 3 c-3 -3 -12 -4
-19 -1 -8 3 -5 6 6 6 11 1 17 -2 13 -5z m770 0 c-3 -3 -12 -4 -19 -1 -8 3 -5
6 6 6 11 1 17 -2 13 -5z m-830 -10 c-3 -3 -12 -4 -19 -1 -8 3 -5 6 6 6 11 1
17 -2 13 -5z m-1576 -194 c-4 -41 -9 -59 -10 -39 -1 42 11 139 16 124 1 -6 -1
-44 -6 -85z m1195 39 c73 -35 129 -116 188 -272 l24 -63 -24 -140 c-13 -76
-26 -156 -30 -176 -5 -27 -12 -38 -24 -38 -10 0 -20 7 -23 15 -5 11 -21 13
-79 9 l-73 -5 35 18 c31 16 36 17 47 3 10 -13 14 -13 25 -1 11 12 10 13 -4 8
-21 -7 -23 3 -5 22 10 11 10 13 0 7 -13 -7 -17 3 -14 37 2 10 -5 17 -14 17 -9
0 -14 4 -10 10 3 5 -9 13 -27 18 -26 7 -32 14 -31 30 2 18 -3 22 -23 22 -20 0
-25 -4 -20 -16 3 -8 2 -13 -3 -9 -5 3 -12 -1 -15 -7 -3 -7 -5 11 -4 40 1 29
-3 57 -10 64 -8 8 -10 3 -8 -23 2 -19 1 -25 -2 -14 -5 15 -8 10 -13 -20 -7
-40 -7 -40 -4 7 1 26 -2 45 -7 42 -5 -3 -7 60 -6 145 2 83 6 151 10 151 5 0 8
-25 8 -55 0 -30 4 -55 9 -55 5 0 8 30 7 66 -1 66 -1 66 33 85 26 14 39 16 53
8 11 -6 22 -9 24 -6 8 8 -8 37 -17 31 -5 -3 -9 -2 -9 3 0 4 -13 7 -30 7 -47
-2 -50 -3 -50 -15 0 -8 6 -7 18 2 13 11 13 9 -2 -9 -27 -31 -42 -13 -22 26 29
55 58 63 122 31z m-1111 -89 c-3 -5 2 -10 11 -10 10 0 15 -3 11 -6 -3 -3 -15
-3 -28 1 -17 6 -19 9 -8 16 18 11 22 11 14 -1z m980 1 c3 -5 1 -12 -5 -16 -5
-3 -10 1 -10 9 0 18 6 21 15 7z m3403 -17 c57 -40 88 -164 79 -317 -16 -274
-148 -430 -244 -288 -13 19 -23 39 -23 45 0 6 6 2 12 -9 57 -104 149 -79 198
53 35 92 43 150 38 271 -4 94 -9 125 -28 164 -24 50 -52 77 -82 77 -24 0 -83
-54 -98 -90 -7 -17 -15 -28 -18 -26 -8 9 47 93 74 115 32 25 61 27 92 5z
m-4481 -287 c-1 -45 -3 -5 -3 88 0 94 2 130 3 82 2 -48 2 -125 0 -170z m4466
223 c44 -35 60 -105 55 -238 -3 -78 -11 -135 -24 -171 -21 -61 -80 -131 -112
-131 -22 0 -66 46 -77 81 -10 30 8 43 23 18 8 -12 9 -18 3 -14 -17 10 -13 -22
5 -39 23 -24 49 -19 83 15 30 30 43 57 20 43 -8 -4 -9 1 -5 17 7 23 7 23 -8 5
-12 -15 -13 -22 -4 -27 9 -6 7 -13 -6 -28 -11 -12 -24 -21 -30 -21 -6 0 -5 5
2 12 19 19 14 38 -10 38 -12 0 -30 7 -40 16 -14 13 -21 14 -32 5 -12 -10 -15
-5 -20 31 -9 77 -13 214 -6 188 7 -23 8 -23 9 -4 2 53 43 155 75 189 38 40 62
44 99 15z m-4593 -45 c18 -22 21 -63 4 -69 -8 -3 -14 1 -14 9 0 7 -5 17 -11
21 -7 4 -10 1 -7 -7 3 -8 1 -22 -4 -33 -7 -13 -6 -26 3 -43 11 -21 11 -29 -2
-51 -17 -32 -44 -40 -53 -16 -5 14 -4 15 9 4 9 -7 18 -11 21 -8 3 3 -13 20
-36 38 -47 37 -53 74 -20 128 20 32 20 32 53 17 l32 -16 -24 21 -23 20 30 0
c16 0 35 -7 42 -15z m219 -52 c16 -18 -6 -17 -39 1 l-25 14 26 -1 c15 -1 32
-8 38 -14z m-30 -29 c14 -12 -19 -1 -35 12 -18 14 -18 14 6 3 14 -6 27 -13 29
-15z m96 6 c13 -5 14 -9 5 -9 -8 0 -24 4 -35 9 -13 5 -14 9 -5 9 8 0 24 -4 35
-9z m-265 -45 c0 -25 -4 -45 -10 -45 -11 0 -14 73 -3 83 11 12 13 8 13 -38z
m4397 13 c-3 -8 -6 -5 -6 6 -1 11 2 17 5 13 3 -3 4 -12 1 -19z m-3391 -71 c23
-20 28 -33 31 -85 2 -39 -1 -63 -8 -68 -8 -5 -10 1 -7 19 3 15 0 28 -6 30 -8
3 -7 10 1 25 11 18 10 20 -1 16 -8 -3 -17 3 -20 14 -4 11 -14 26 -23 34 -16
12 -15 11 0 -12 21 -30 21 -47 2 -67 -14 -13 -13 -18 2 -43 14 -24 15 -34 5
-54 -11 -25 0 -37 13 -16 4 6 11 8 16 4 20 -12 -3 -22 -39 -18 -42 5 -69 24
-35 24 35 0 37 20 3 26 -23 5 -36 17 -50 45 -21 40 -26 64 -11 55 4 -3 13 6
19 19 7 14 16 25 22 25 6 0 8 -4 5 -10 -4 -6 5 -10 21 -10 22 0 24 2 14 14 -6
8 -24 16 -38 19 l-27 3 35 17 c45 21 44 21 76 -6z m-861 -35 c-3 -3 -11 0 -18
7 -9 10 -8 11 6 5 10 -3 15 -9 12 -12z m4232 -84 c-2 -18 -4 -6 -4 27 0 33 2
48 4 33 2 -15 2 -42 0 -60z m-4169 35 c39 -14 41 -16 25 -29 -13 -10 -14 -13
-4 -14 8 0 12 -2 9 -5 -3 -3 -13 -2 -22 1 -14 5 -15 9 -4 16 7 6 9 11 3 14 -5
3 -28 14 -50 24 -41 21 -33 19 43 -7z m-91 -90 c-2 -16 -4 -5 -4 22 0 28 2 40
4 28 2 -13 2 -35 0 -50z m2211 33 c160 -84 202 -438 82 -691 -58 -121 -137
-184 -230 -185 -107 0 -195 119 -205 279 l-4 66 9 -60 c18 -115 61 -197 124
-236 43 -28 121 -22 174 13 184 122 240 582 90 744 -49 53 -92 69 -145 55
-120 -32 -216 -188 -242 -393 -7 -52 -9 -56 -10 -22 -1 53 31 178 64 249 73
154 197 231 293 181z m-2128 -6 c8 -5 11 -10 5 -10 -5 0 -17 5 -25 10 -8 5
-10 10 -5 10 6 0 17 -5 25 -10z m1026 1 c-8 -12 45 -32 72 -27 15 4 25 -1 29
-12 3 -9 13 -26 22 -37 9 -11 12 -17 7 -13 -5 4 -15 3 -22 -3 -10 -8 -12 -6
-9 9 3 19 2 20 -25 4 -27 -15 -30 -15 -49 2 -21 19 -43 71 -34 80 9 9 15 7 9
-3z m-26 -5 c0 -3 -4 -8 -10 -11 -5 -3 -10 -1 -10 4 0 6 5 11 10 11 6 0 10 -2
10 -4z m-945 -16 c13 -6 15 -9 5 -9 -8 0 -22 4 -30 9 -18 12 -2 12 25 0z m778
-17 c-3 -7 -9 -10 -14 -7 -14 8 -11 21 5 21 8 0 12 -6 9 -14z m221 -64 c-3 -5
8 -7 23 -5 15 2 20 1 11 -1 -10 -2 -18 -9 -18 -14 0 -15 -41 16 -61 48 -29 43
-23 47 16 12 19 -18 32 -36 29 -40z m3133 39 c-3 -7 -5 -2 -5 12 0 14 2 19 5
13 2 -7 2 -19 0 -25z m-2068 -18 c114 -80 137 -368 46 -555 -48 -99 -125 -165
-192 -165 -67 0 -143 86 -162 184 -18 92 -18 252 0 226 7 -11 8 -4 4 25 -4 28
-3 34 4 20 7 -15 9 -9 8 25 -2 91 92 236 169 260 40 13 89 5 123 -20z m2078
-22 c-3 -8 -6 -5 -6 6 -1 11 2 17 5 13 3 -3 4 -12 1 -19z m80 -3 c0 -8 -4 -15
-9 -15 -4 0 -8 7 -8 15 0 8 4 15 8 15 5 0 9 -7 9 -15z m-4097 -18 c21 -4 20
-4 -7 -6 -25 -1 -33 3 -33 17 0 11 3 13 8 6 4 -7 18 -14 32 -17z m-60 3 c0 -5
-2 -10 -4 -10 -3 0 -8 5 -11 10 -3 6 -1 10 4 10 6 0 11 -4 11 -10z m480 6 c0
-2 -8 -10 -17 -17 -16 -13 -17 -12 -4 4 13 16 21 21 21 13z m156 -27 c9 -15
-23 -10 -35 5 -10 12 -8 13 9 9 11 -3 23 -9 26 -14z m-378 -6 c-10 -2 -28 -2
-40 0 -13 2 -5 4 17 4 22 1 32 -1 23 -4z m-131 -19 c-3 -3 -12 -4 -19 -1 -8 3
-5 6 6 6 11 1 17 -2 13 -5z m110 -10 c-3 -3 -12 -4 -19 -1 -8 3 -5 6 6 6 11 1
17 -2 13 -5z m96 -11 c-7 -2 -19 -2 -25 0 -7 3 -2 5 12 5 14 0 19 -2 13 -5z
m-15 -30 c-10 -2 -28 -2 -40 0 -13 2 -5 4 17 4 22 1 32 -1 23 -4z m77 -13 c3
-5 1 -10 -4 -10 -6 0 -11 5 -11 10 0 6 2 10 4 10 3 0 8 -4 11 -10z m312 -66
c-3 -3 -12 -4 -19 -1 -8 3 -5 6 6 6 11 1 17 -2 13 -5z m60 -10 c-3 -3 -12 -4
-19 -1 -8 3 -5 6 6 6 11 1 17 -2 13 -5z m230 -40 c-3 -3 -12 -4 -19 -1 -8 3
-5 6 6 6 11 1 17 -2 13 -5z m650 -166 c-3 -7 -5 -2 -5 12 0 14 2 19 5 13 2 -7
2 -19 0 -25z"/>
<path d="M2008 3169 c27 -31 29 -49 2 -24 -11 10 -20 13 -20 7 0 -7 4 -12 8
-12 12 0 11 -32 -2 -50 -6 -8 0 -6 12 4 19 17 22 17 16 3 -4 -10 -1 -17 6 -17
8 0 10 9 6 28 l-7 27 22 -25 21 -25 -19 33 c-10 18 -29 43 -43 55 l-25 22 23
-26z"/>
<path d="M2035 3060 c-5 -8 -24 -11 -51 -7 -24 2 -44 1 -44 -4 0 -10 18 -12
63 -9 25 1 27 -1 28 -42 l1 -43 9 54 c9 55 7 72 -6 51z"/>
<path d="M1929 3023 c-47 -7 -44 -55 3 -58 14 -1 17 4 13 24 -4 23 -3 24 9 9
7 -10 20 -18 29 -18 9 0 19 -6 23 -12 4 -7 4 -10 -1 -6 -5 5 -19 -8 -32 -27
-25 -37 -39 -38 -83 -1 -23 19 -23 18 2 -8 18 -20 37 -29 57 -29 39 0 39 -4
-1 -16 -24 -7 -27 -9 -11 -10 30 -1 84 45 76 66 -4 10 -2 14 4 10 7 -5 9 1 5
15 -6 26 -26 48 -41 48 -6 0 -11 5 -11 10 0 6 -3 9 -7 9 -5 -1 -20 -4 -34 -6z
m69 -110 c-16 -19 -29 -5 -16 17 9 13 14 16 20 7 4 -6 2 -17 -4 -24z"/>
<path d="M1841 2925 c-1 -42 2 -56 9 -45 5 8 10 10 10 5 0 -6 -5 -16 -11 -22
-6 -6 -9 -19 -7 -29 3 -16 7 -14 20 11 8 17 13 39 11 50 -3 11 -5 35 -6 52 0
18 -4 28 -8 22 -4 -8 -8 -7 -12 2 -3 8 -6 -13 -6 -46z"/>
<path d="M2049 2917 c-18 -29 -29 -87 -15 -84 6 1 15 -8 21 -20 6 -16 18 -23
35 -22 14 0 19 3 12 6 -10 4 -10 8 0 21 10 12 10 14 1 8 -13 -7 -18 20 -14 75
3 34 -21 43 -40 16z m11 -29 c0 -18 -2 -20 -9 -8 -6 8 -7 18 -5 22 9 14 14 9
14 -14z"/>
<path d="M2141 2864 c0 -11 3 -14 6 -6 3 7 2 16 -1 19 -3 4 -6 -2 -5 -13z"/>
<path d="M1883 2847 c-11 -12 -13 -21 -6 -28 7 -7 14 -5 23 6 16 20 37 19 48
-2 9 -14 12 -15 24 -2 26 27 16 42 -30 43 -30 1 -48 -5 -59 -17z m27 9 c0 -2
-8 -10 -17 -17 -16 -13 -17 -12 -4 4 13 16 21 21 21 13z m55 -16 c3 -5 2 -10
-4 -10 -5 0 -13 5 -16 10 -3 6 -2 10 4 10 5 0 13 -4 16 -10z"/>
<path d="M2132 2815 c0 -16 2 -22 5 -12 2 9 2 23 0 30 -3 6 -5 -1 -5 -18z"/>
<path d="M2025 2809 c-4 -6 -5 -12 -2 -15 2 -3 7 2 10 11 7 17 1 20 -8 4z"/>
<path d="M2037 2783 c-4 -3 -7 -11 -7 -17 0 -6 5 -5 12 2 6 6 9 14 7 17 -3 3
-9 2 -12 -2z"/>
<path d="M2122 2755 c0 -16 2 -22 5 -12 2 9 2 23 0 30 -3 6 -5 -1 -5 -18z"/>
<path d="M2046 2744 c-3 -9 -6 -23 -6 -32 0 -13 5 -11 19 8 19 23 19 40 1 40
-4 0 -11 -7 -14 -16z"/>
<path d="M5154 3027 c-15 -13 -29 -33 -30 -43 -1 -10 -6 -30 -10 -44 l-7 -25
22 28 c28 34 73 37 97 5 l16 -23 -6 25 c-3 14 -6 28 -6 33 0 4 -6 7 -14 7 -7
0 -16 10 -19 22 -6 21 -5 21 18 -3 13 -13 31 -49 39 -79 9 -32 15 -44 15 -30
1 43 -20 101 -44 126 -30 30 -37 30 -71 1z m5 -28 c-24 -15 -29 -10 -11 11 10
12 18 16 21 9 2 -6 -3 -15 -10 -20z"/>
<path d="M5156 2935 c-31 -33 -46 -89 -46 -167 0 -85 15 -126 48 -135 19 -4
30 -1 42 15 10 12 21 18 25 14 5 -4 5 -2 2 4 -3 6 1 33 9 60 16 53 16 171 -1
191 -31 37 -37 43 -46 43 -5 0 -20 -11 -33 -25z m74 -85 c0 -5 -5 -10 -11 -10
-5 0 -7 5 -4 10 3 6 8 10 11 10 2 0 4 -4 4 -10z m-27 -57 c-8 -27 -9 -28 -25
-11 -17 17 -17 18 2 18 12 0 20 7 20 17 0 9 3 14 6 11 3 -3 2 -19 -3 -35z m27
-36 c0 -7 -7 -22 -15 -33 -13 -17 -13 -16 -3 14 13 34 18 40 18 19z m-61 -52
c0 -5 -4 -3 -9 5 -5 8 -9 22 -9 30 0 16 17 -16 18 -35z"/>
<path d="M5077 2816 c-4 -15 -6 -31 -2 -34 10 -10 16 6 13 35 l-3 28 -8 -29z"/>
<path d="M5268 2820 c-14 -32 -19 -90 -8 -90 6 0 13 6 16 14 8 20 0 94 -8 76z"/>
<path d="M556 2992 c-3 -5 1 -9 9 -9 8 0 12 4 9 9 -3 4 -7 8 -9 8 -2 0 -6 -4
-9 -8z"/>
<path d="M1895 2600 c10 -11 20 -20 23 -20 3 0 -3 9 -13 20 -10 11 -20 20 -23
20 -3 0 3 -9 13 -20z"/>
<path d="M2862 2594 c-6 -3 -10 -10 -7 -15 4 -5 0 -6 -8 -3 -7 2 -25 -5 -38
-16 -13 -12 -19 -19 -12 -16 6 4 14 2 17 -2 10 -16 58 0 64 20 5 20 29 19 24
-2 -1 -7 3 -19 9 -26 10 -12 8 -13 -12 -6 -13 5 -31 7 -39 4 -31 -10 -71 -45
-66 -57 5 -14 -19 -14 -31 0 -4 4 -3 5 3 2 7 -4 14 4 17 21 8 39 2 38 -27 -5
l-26 -38 22 -6 c13 -3 25 -2 26 3 2 4 7 6 12 3 4 -3 14 3 21 12 12 14 12 16 0
8 -9 -5 -12 -4 -7 3 4 6 13 9 20 6 8 -3 17 -1 21 5 3 6 21 11 40 11 38 0 105
-54 105 -84 0 -13 5 -16 19 -11 17 5 20 -1 26 -50 4 -31 5 -59 1 -62 -3 -4 -6
10 -6 30 0 20 -4 39 -10 42 -6 4 -10 -17 -10 -55 0 -41 4 -59 11 -54 7 4 9 -2
7 -17 -1 -13 -7 -22 -12 -19 -10 6 -45 -101 -37 -115 2 -5 11 4 17 20 9 21 13
24 14 11 0 -38 -62 -135 -106 -165 -24 -15 -41 -30 -39 -33 3 -3 -12 -2 -32 1
-28 5 -39 12 -41 26 -2 11 -14 28 -27 37 -19 14 -25 15 -34 4 -13 -15 24 -60
41 -50 7 4 8 2 4 -4 -8 -14 25 -32 59 -32 34 0 73 21 106 57 41 43 107 176
118 237 21 112 -33 320 -93 359 -26 17 -84 29 -104 21z m118 -76 c16 -22 30
-46 30 -52 -1 -6 -7 0 -14 13 -9 16 -16 20 -20 12 -11 -18 -28 -2 -21 20 4 11
1 26 -5 34 -7 8 -10 15 -6 15 3 0 19 -19 36 -42z m37 -350 c-3 -8 -6 -5 -6 6
-1 11 2 17 5 13 3 -3 4 -12 1 -19z"/>
<path d="M2850 2463 c-42 -29 -59 -56 -81 -126 -52 -166 12 -330 114 -295 88
31 146 231 101 350 -30 79 -82 107 -134 71z m50 -90 c-14 -3 -32 -10 -40 -16
-13 -11 -13 -10 -1 6 7 9 25 16 40 16 l26 -2 -25 -4z m27 -88 l28 18 -25 -27
c-14 -15 -31 -46 -37 -69 l-13 -42 6 38 c4 28 0 48 -16 75 l-22 37 26 -24 c25
-23 26 -23 53 -6z m30 -67 c-3 -8 -6 -5 -6 6 -1 11 2 17 5 13 3 -3 4 -12 1
-19z m-77 -81 l25 -4 -25 -2 c-27 -1 -50 15 -50 34 0 5 6 3 13 -7 7 -9 24 -18
37 -21z"/>
<path d="M2706 2395 c-9 -26 -7 -32 5 -12 6 10 9 21 6 23 -2 3 -7 -2 -11 -11z"/>
<path d="M2722 2358 c-14 -18 -32 -97 -25 -114 12 -32 30 -11 40 49 11 63 5
89 -15 65z"/>
<path d="M2711 2154 c-2 -75 52 -164 99 -164 13 0 17 -6 13 -20 -4 -15 0 -20
13 -20 29 0 48 16 41 34 -8 20 10 31 27 17 9 -8 18 -3 34 19 12 16 22 37 22
46 0 15 -5 13 -28 -9 -15 -15 -33 -27 -40 -27 -7 0 -12 -3 -12 -8 0 -4 -18 -6
-39 -4 -52 5 -91 45 -113 114 -14 45 -17 48 -17 22z"/>
<path d="M2681 2144 c0 -11 3 -14 6 -6 3 7 2 16 -1 19 -3 4 -6 -2 -5 -13z"/>
<path d="M2697 2068 c17 -60 23 -70 23 -41 0 21 -27 93 -35 93 -2 0 3 -24 12
-52z"/>
<path d="M3388 3903 c7 -3 16 -2 19 1 4 3 -2 6 -13 5 -11 0 -14 -3 -6 -6z"/>
<path d="M3652 3874 c10 -10 20 -15 24 -12 3 4 -5 12 -18 18 -22 12 -22 12 -6
-6z"/>
<path d="M3367 3859 c7 -7 15 -10 18 -7 3 3 -2 9 -12 12 -14 6 -15 5 -6 -5z"/>
<path d="M2553 3813 c-13 -2 -23 -9 -23 -14 0 -5 -5 -9 -11 -9 -5 0 -7 5 -3
11 5 9 -8 10 -45 7 -59 -6 -75 -16 -61 -38 8 -13 11 -13 19 -1 7 11 40 13 172
8 113 -3 156 -2 139 5 -14 6 -54 11 -90 13 -82 3 -82 3 -75 15 3 6 5 9 3 9 -2
-1 -13 -4 -25 -6z m-65 -20 c-10 -2 -26 -2 -35 0 -10 3 -2 5 17 5 19 0 27 -2
18 -5z"/>
<path d="M2275 3780 c-18 -8 -17 -9 8 -9 15 -1 27 4 27 9 0 12 -8 12 -35 0z"/>
<path d="M2893 3769 c25 -15 21 -29 -10 -30 -25 0 -26 -1 -8 -9 28 -11 53 13
35 34 -7 9 -18 16 -24 16 -6 0 -3 -5 7 -11z"/>
<path d="M2808 3743 c6 -2 18 -2 25 0 6 3 1 5 -13 5 -14 0 -19 -2 -12 -5z"/>
<path d="M3813 3670 c0 -25 2 -35 4 -22 2 12 2 32 0 45 -2 12 -4 2 -4 -23z"/>
<path d="M3445 3690 c27 -12 43 -12 25 0 -8 5 -22 9 -30 9 -10 0 -8 -3 5 -9z"/>
<path d="M1703 3673 c9 -2 23 -2 30 0 6 3 -1 5 -18 5 -16 0 -22 -2 -12 -5z"/>
<path d="M3437 3660 c3 -11 14 -20 24 -20 25 0 24 4 -5 23 -23 15 -24 15 -19
-3z"/>
<path d="M1633 3663 c9 -2 23 -2 30 0 6 3 -1 5 -18 5 -16 0 -22 -2 -12 -5z"/>
<path d="M1092 3640 c0 -14 2 -19 5 -12 2 6 2 18 0 25 -3 6 -5 1 -5 -13z"/>
<path d="M1320 3635 c-63 -7 -127 -13 -142 -14 -20 -1 -29 -8 -37 -32 l-11
-32 -21 27 c-11 14 -25 24 -30 21 -11 -7 -12 -44 -1 -46 36 -6 61 -4 101 8 25
8 105 30 176 48 141 37 138 38 -35 20z"/>
<path d="M1123 3625 c-6 -7 -8 -18 -3 -26 7 -11 10 -10 15 3 10 24 2 38 -12
23z"/>
<path d="M1069 3468 c-11 -8 -10 -9 4 -4 11 4 16 2 11 -5 -3 -6 -15 -9 -25 -6
-10 3 -22 1 -25 -4 -9 -15 59 -9 86 7 14 8 18 13 10 11 -8 -2 -22 -1 -31 4 -8
4 -22 3 -30 -3z"/>
<path d="M1068 3423 c7 -3 16 -2 19 1 4 3 -2 6 -13 5 -11 0 -14 -3 -6 -6z"/>
<path d="M1014 3405 c8 -8 18 -15 22 -15 3 0 1 7 -6 15 -7 8 -17 15 -22 15 -5
0 -3 -7 6 -15z"/>
<path d="M276 3388 c-19 -26 -20 -38 -5 -38 5 0 8 4 4 9 -3 5 4 12 15 16 11 4
18 11 15 16 -9 14 12 11 46 -6 17 -9 27 -21 23 -27 -5 -7 -3 -8 5 -4 9 6 9 12
-3 25 -9 10 -14 20 -12 22 2 2 -13 5 -34 7 -30 2 -42 -2 -54 -20z"/>
<path d="M1240 3375 c35 -13 66 -22 68 -20 5 4 -105 45 -121 44 -7 0 17 -11
53 -24z"/>
<path d="M399 3358 c-5 -17 -4 -46 3 -42 4 3 8 -1 8 -8 0 -7 6 -25 14 -40 8
-16 10 -30 5 -37 -5 -6 -6 -9 -3 -6 4 3 14 -1 22 -8 13 -10 14 -9 7 3 -5 8
-10 22 -12 30 -1 9 -10 34 -19 55 -10 22 -17 43 -16 48 2 6 -7 11 -9 5z"/>
<path d="M1012 3348 c-15 -15 -16 -31 -1 -26 6 2 10 7 9 12 -1 5 4 13 12 17 7
5 8 9 3 9 -6 0 -16 -5 -23 -12z"/>
<path d="M1325 3343 c26 -24 88 -65 73 -47 -9 10 -32 28 -50 38 -18 10 -28 15
-23 9z"/>
<path d="M1103 3303 c9 -2 23 -2 30 0 6 3 -1 5 -18 5 -16 0 -22 -2 -12 -5z"/>
<path d="M340 3286 c0 -9 5 -16 10 -16 6 0 10 4 10 9 0 6 -4 13 -10 16 -5 3
-10 -1 -10 -9z"/>
<path d="M930 3290 c0 -5 7 -10 16 -10 8 0 12 5 9 10 -3 6 -10 10 -16 10 -5 0
-9 -4 -9 -10z"/>
<path d="M1180 3290 c0 -7 19 -8 53 -4 70 9 72 14 4 14 -33 0 -57 -4 -57 -10z"/>
<path d="M392 3265 c0 -16 2 -22 5 -12 2 9 2 23 0 30 -3 6 -5 -1 -5 -18z"/>
<path d="M970 3280 c0 -5 5 -10 10 -10 6 0 10 5 10 10 0 6 -4 10 -10 10 -5 0
-10 -4 -10 -10z"/>
<path d="M1000 3280 c0 -5 9 -10 19 -10 14 0 18 -5 14 -20 -4 -15 0 -20 16
-20 11 0 21 5 21 10 0 6 -4 10 -9 10 -5 0 -11 9 -14 20 -5 20 -47 29 -47 10z"/>
<path d="M1305 3279 c-16 -5 -42 -10 -57 -11 -46 -2 -31 -18 16 -18 39 0 44
-2 39 -20 -3 -11 0 -20 6 -20 15 0 14 50 -1 51 -7 1 -2 5 12 9 41 13 48 11 43
-9 -4 -15 0 -19 14 -16 10 2 20 4 22 4 2 1 -4 10 -14 21 -20 22 -34 23 -80 9z"/>
<path d="M1060 3270 c0 -5 9 -10 20 -10 11 0 20 5 20 10 0 6 -9 10 -20 10 -11
0 -20 -4 -20 -10z"/>
<path d="M1110 3270 c0 -5 5 -10 10 -10 6 0 10 5 10 10 0 6 -4 10 -10 10 -5 0
-10 -4 -10 -10z"/>
<path d="M1140 3271 c0 -5 8 -12 18 -14 9 -3 2 -5 -15 -6 -22 -1 -33 -6 -33
-16 0 -8 -6 -15 -14 -15 -8 0 -17 -10 -19 -22 -4 -23 -4 -23 -6 1 -1 19 -5 23
-26 19 -21 -4 -25 -1 -25 18 0 30 -16 31 -24 2 -12 -45 -7 -66 17 -71 l22 -4
-22 -2 c-32 -2 -29 -28 2 -28 21 0 25 4 25 28 0 21 -6 29 -22 32 -17 3 -15 5
9 6 26 1 30 -2 26 -19 -4 -15 0 -20 16 -20 12 0 21 6 21 15 0 8 6 15 14 15 8
0 17 10 19 23 l4 22 2 -22 c0 -13 6 -23 12 -23 6 0 9 6 6 13 -3 8 -1 20 4 28
6 10 9 10 9 2 0 -7 5 -13 10 -13 16 0 11 47 -6 54 -21 8 -24 8 -24 -3z"/>
<path d="M922 3258 c-24 -12 -25 -29 -2 -36 9 -3 11 1 7 12 -4 10 -1 16 7 16
8 0 13 -7 12 -16 0 -9 5 -19 13 -22 10 -3 12 0 8 12 -4 10 -1 16 8 16 8 0 15
5 15 11 0 6 -7 9 -15 5 -8 -3 -15 -1 -15 4 0 12 -9 12 -38 -2z"/>
<path d="M1190 3244 c0 -24 3 -26 40 -22 36 3 40 1 40 -19 0 -20 5 -23 40 -23
33 0 40 -3 40 -20 0 -11 5 -20 10 -20 6 0 10 9 10 20 0 13 5 18 15 14 10 -4
15 0 15 11 0 14 -9 16 -57 14 -55 -3 -58 -2 -55 20 3 21 0 22 -40 20 -36 -3
-43 0 -40 14 2 9 -2 17 -8 17 -5 0 -10 -12 -10 -26z"/>
<path d="M1330 3235 c0 -21 5 -25 30 -25 17 0 30 5 30 11 0 5 -10 9 -22 7 -17
-2 -22 1 -20 15 2 9 -2 17 -8 17 -5 0 -10 -11 -10 -25z"/>
<path d="M1080 3240 c0 -5 5 -10 10 -10 6 0 10 5 10 10 0 6 -4 10 -10 10 -5 0
-10 -4 -10 -10z"/>
<path d="M330 3220 c-19 -4 -28 -8 -20 -10 23 -4 44 1 55 11 5 5 7 8 5 8 -3
-1 -21 -5 -40 -9z"/>
<path d="M914 3195 c3 -9 0 -15 -10 -15 -8 0 -13 3 -11 8 3 4 -8 7 -24 8 -16
1 -29 -3 -29 -8 0 -12 50 -30 67 -24 7 3 13 1 13 -4 0 -6 4 -10 8 -10 5 0 9
14 10 30 0 21 -4 30 -15 30 -9 0 -13 -6 -9 -15z"/>
<path d="M1160 3200 c0 -5 11 -10 25 -10 18 0 25 -5 25 -20 0 -11 5 -20 11
-20 6 0 9 6 6 13 -3 8 -1 20 4 28 6 10 9 10 9 2 0 -7 5 -13 10 -13 6 0 10 7
10 15 0 11 -12 15 -50 15 -27 0 -50 -4 -50 -10z"/>
<path d="M954 3178 c3 -13 5 -26 5 -30 1 -5 5 -8 9 -8 5 0 9 14 10 30 0 20 -4
30 -14 30 -9 0 -12 -8 -10 -22z"/>
<path d="M435 3155 c2 -14 -1 -25 -6 -25 -5 0 -9 -5 -9 -11 0 -5 5 -7 10 -4 6
3 10 -3 10 -15 0 -23 24 -53 34 -43 10 11 7 83 -5 83 -5 0 -7 -5 -3 -12 4 -7
3 -8 -4 -4 -17 10 -15 26 3 26 9 0 12 6 9 15 -4 8 -14 15 -24 15 -12 0 -17 -7
-15 -25z"/>
<path d="M1100 3170 c0 -5 5 -10 10 -10 6 0 10 5 10 10 0 6 -4 10 -10 10 -5 0
-10 -4 -10 -10z"/>
<path d="M1130 3171 c0 -5 6 -12 13 -14 6 -3 0 -6 -15 -6 -18 -1 -28 -7 -28
-16 0 -10 10 -14 35 -13 27 1 35 6 35 19 0 12 5 16 15 13 9 -4 15 0 15 10 0
12 -10 16 -35 16 -19 0 -35 -4 -35 -9z"/>
<path d="M1240 3160 c0 -5 12 -10 26 -10 22 0 26 -4 22 -24 -4 -17 -1 -23 9
-19 7 3 13 14 13 24 0 12 5 16 15 13 9 -4 15 0 15 10 0 13 -11 16 -50 16 -27
0 -50 -4 -50 -10z"/>
<path d="M1380 3150 c0 -5 5 -10 10 -10 6 0 10 5 10 10 0 6 -4 10 -10 10 -5 0
-10 -4 -10 -10z"/>
<path d="M1050 3141 c0 -5 9 -11 20 -14 13 -3 20 0 20 9 0 8 -9 14 -20 14 -11
0 -20 -4 -20 -9z"/>
<path d="M1180 3130 c0 -5 5 -10 10 -10 6 0 10 5 10 10 0 6 -4 10 -10 10 -5 0
-10 -4 -10 -10z"/>
<path d="M1210 3125 c0 -10 10 -14 35 -13 22 1 35 6 35 15 0 8 -12 13 -35 13
-24 0 -35 -5 -35 -15z"/>
<path d="M1320 3120 c0 -5 5 -10 10 -10 6 0 10 5 10 10 0 6 -4 10 -10 10 -5 0
-10 -4 -10 -10z"/>
<path d="M1350 3121 c0 -6 5 -13 10 -16 6 -3 10 1 10 9 0 9 -4 16 -10 16 -5 0
-10 -4 -10 -9z"/>
<path d="M1380 3115 c0 -8 5 -15 10 -15 6 0 10 7 10 15 0 8 -4 15 -10 15 -5 0
-10 -7 -10 -15z"/>
<path d="M990 3105 c0 -8 5 -15 10 -15 6 0 10 7 10 15 0 8 -4 15 -10 15 -5 0
-10 -7 -10 -15z"/>
<path d="M1020 3099 c0 -7 10 -9 25 -7 21 4 25 1 25 -18 0 -20 5 -24 29 -24
24 0 28 -3 24 -20 -5 -18 0 -20 40 -20 40 0 45 -2 40 -20 -3 -11 0 -20 6 -20
6 0 11 14 11 31 0 30 -1 31 -40 27 -36 -3 -40 -1 -40 19 0 17 -7 23 -32 26
l-33 4 33 1 c32 2 43 16 20 24 -30 11 -108 8 -108 -3z"/>
<path d="M930 3082 c0 -9 7 -13 20 -9 11 3 23 1 26 -4 8 -13 34 -11 34 2 0 6
-7 9 -15 5 -8 -3 -15 -2 -15 3 0 5 -11 11 -25 13 -18 4 -25 1 -25 -10z"/>
<path d="M1150 3090 c0 -5 5 -10 10 -10 6 0 10 5 10 10 0 6 -4 10 -10 10 -5 0
-10 -4 -10 -10z"/>
<path d="M1180 3080 c0 -13 -5 -18 -15 -14 -9 4 -15 0 -15 -10 0 -12 10 -16
35 -16 34 0 47 13 23 23 -7 3 -1 6 15 6 43 1 36 31 -8 31 -28 0 -35 -4 -35
-20z"/>
<path d="M1260 3086 c0 -9 5 -16 10 -16 6 0 10 4 10 9 0 6 -4 13 -10 16 -5 3
-10 -1 -10 -9z"/>
<path d="M836 3081 c-6 -9 52 -33 89 -36 14 -1 19 -8 17 -23 -3 -22 12 -30 23
-12 3 6 2 10 -3 10 -6 0 -8 9 -5 20 4 15 0 20 -16 22 -11 0 -27 1 -33 2 -7 1
-15 4 -18 7 -10 12 -48 20 -54 10z"/>
<path d="M1290 3080 c0 -5 5 -10 10 -10 6 0 10 5 10 10 0 6 -4 10 -10 10 -5 0
-10 -4 -10 -10z"/>
<path d="M1320 3076 c0 -11 -9 -16 -30 -16 -26 0 -30 -4 -31 -27 0 -16 -3 -22
-6 -15 -7 17 -23 15 -23 -3 0 -12 13 -15 55 -15 48 0 55 -2 55 -20 0 -11 5
-20 10 -20 6 0 10 13 10 29 0 28 -3 30 -42 34 -38 3 -36 4 14 5 63 2 87 18 36
25 l-33 4 33 1 c46 3 37 26 -11 30 -28 2 -37 -1 -37 -12z"/>
<path d="M1413 3025 c0 -38 2 -53 4 -32 2 20 2 52 0 70 -2 17 -4 1 -4 -38z"/>
<path d="M1019 3053 c0 -16 -3 -22 -6 -15 -2 6 -11 12 -20 12 -31 0 -5 -25 30
-28 37 -3 52 13 20 21 -17 4 -17 5 0 6 24 1 22 31 -3 31 -15 0 -20 -7 -21 -27z"/>
<path d="M5837 3074 c-3 -3 -21 -6 -40 -6 -19 0 -40 -3 -47 -8 -18 -11 -3 -53
17 -46 8 3 21 6 29 6 9 0 13 4 10 9 -4 5 4 7 16 3 13 -3 19 -1 15 5 -4 6 2 13
13 16 11 3 20 10 20 16 0 12 -23 15 -33 5z"/>
<path d="M1230 3050 c0 -5 5 -10 10 -10 6 0 10 5 10 10 0 6 -4 10 -10 10 -5 0
-10 -4 -10 -10z"/>
<path d="M263 3010 c0 -25 2 -35 4 -22 2 12 2 32 0 45 -2 12 -4 2 -4 -23z"/>
<path d="M846 3041 c-4 -7 56 -31 78 -31 19 0 2 20 -25 29 -38 13 -46 14 -53
2z"/>
<path d="M1070 3031 c0 -5 6 -12 13 -14 10 -4 10 -6 0 -6 -22 -2 -14 -31 7
-31 16 0 20 7 20 30 0 23 -4 30 -20 30 -11 0 -20 -4 -20 -9z"/>
<path d="M980 2985 c0 -25 4 -31 25 -33 16 -1 25 3 25 13 0 9 -10 15 -22 16
-22 1 -22 1 2 8 32 10 39 6 33 -18 -4 -15 2 -19 31 -23 25 -3 36 0 36 9 0 7
-11 13 -25 13 -18 0 -25 5 -25 19 0 15 -9 20 -40 23 -39 3 -40 3 -40 -27z"/>
<path d="M1370 3005 c0 -8 5 -15 10 -15 6 0 10 7 10 15 0 8 -4 15 -10 15 -5 0
-10 -7 -10 -15z"/>
<path d="M380 2996 c0 -8 7 -16 15 -20 10 -4 15 1 15 14 0 11 -7 20 -15 20 -8
0 -15 -6 -15 -14z"/>
<path d="M1120 2990 c0 -5 11 -10 25 -10 18 0 25 -5 25 -20 0 -32 17 -23 18
10 1 28 -2 30 -34 30 -19 0 -34 -4 -34 -10z"/>
<path d="M942 2978 c6 -18 25 -21 25 -3 0 8 -7 15 -14 15 -8 0 -13 -5 -11 -12z"/>
<path d="M1230 2981 c0 -5 12 -12 28 -14 19 -3 14 -4 -15 -6 -50 -1 -57 -16
-12 -26 22 -5 34 -3 40 6 6 10 9 11 9 2 0 -7 5 -13 10 -13 6 0 10 9 10 20 0
13 5 18 15 14 9 -4 15 0 15 10 0 13 -11 16 -50 16 -27 0 -50 -4 -50 -9z"/>
<path d="M1370 2970 c0 -5 5 -10 10 -10 6 0 10 5 10 10 0 6 -4 10 -10 10 -5 0
-10 -4 -10 -10z"/>
<path d="M370 2955 c-8 -9 -8 -15 -2 -15 12 0 26 19 19 26 -2 2 -10 -2 -17
-11z"/>
<path d="M1120 2955 c0 -8 9 -15 20 -15 11 0 20 7 20 15 0 8 -9 15 -20 15 -11
0 -20 -7 -20 -15z"/>
<path d="M395 2945 c-4 -11 -7 -26 -6 -33 1 -7 -4 -11 -11 -10 -7 2 -12 -3
-10 -10 1 -9 -9 -11 -40 -6 l-43 5 23 -20 c25 -22 49 -18 70 11 7 10 17 16 22
13 14 -9 20 10 11 40 -7 27 -8 27 -16 10z"/>
<path d="M1310 2940 c0 -5 5 -10 10 -10 6 0 10 5 10 10 0 6 -4 10 -10 10 -5 0
-10 -4 -10 -10z"/>
<path d="M1340 2941 c0 -6 5 -13 10 -16 6 -3 10 1 10 9 0 9 -4 16 -10 16 -5 0
-10 -4 -10 -9z"/>
<path d="M1370 2935 c0 -8 5 -15 10 -15 6 0 10 7 10 15 0 8 -4 15 -10 15 -5 0
-10 -7 -10 -15z"/>
<path d="M980 2860 c0 -78 1 -80 24 -80 13 0 31 -3 40 -6 10 -4 16 -1 16 9 0
9 -11 17 -27 20 l-28 4 28 2 c15 0 27 6 27 12 0 6 -7 9 -15 5 -8 -3 -15 -1
-15 4 0 5 -10 11 -22 13 l-23 4 23 2 c12 0 22 5 22 10 0 5 -10 12 -22 14 l-23
4 23 2 c26 1 29 18 5 24 -17 4 -17 5 0 6 28 2 21 31 -8 31 -25 0 -25 -1 -25
-80z"/>
<path d="M1040 2921 c0 -5 12 -12 28 -14 l27 -4 -26 -2 c-22 -1 -26 -6 -27
-31 -1 -38 15 -40 21 -2 l4 27 2 -27 c1 -21 6 -28 21 -28 25 0 26 17 3 23 -17
4 -17 5 0 6 12 1 17 10 17 31 0 28 -3 30 -35 30 -19 0 -35 -4 -35 -9z"/>
<path d="M1120 2913 c0 -8 13 -13 35 -13 19 0 35 4 35 9 0 5 -16 11 -35 13
-24 3 -35 0 -35 -9z"/>
<path d="M1200 2890 c0 -28 3 -30 35 -30 19 0 35 5 35 10 0 6 -12 10 -27 10
-39 0 -22 10 21 12 47 2 46 14 -1 22 -60 9 -63 8 -63 -24z"/>
<path d="M1312 2880 c0 -16 4 -30 9 -30 5 0 9 14 9 30 0 17 -4 30 -8 30 -5 0
-9 -13 -10 -30z"/>
<path d="M1340 2879 c0 -24 4 -29 25 -29 14 0 25 5 25 10 0 6 -9 10 -21 10
-11 0 -18 4 -14 10 3 5 12 7 20 3 9 -3 15 1 15 10 0 9 -10 15 -25 15 -21 0
-25 -5 -25 -29z"/>
<path d="M1403 2860 c0 -25 2 -35 4 -22 2 12 2 32 0 45 -2 12 -4 2 -4 -23z"/>
<path d="M1120 2880 c0 -5 11 -10 25 -10 14 0 25 -4 25 -9 0 -4 -11 -6 -25 -3
-22 4 -25 1 -25 -27 0 -29 2 -31 35 -31 41 0 47 17 8 23 l-28 4 26 2 c22 1 26
6 27 31 1 28 -2 30 -34 30 -19 0 -34 -4 -34 -10z"/>
<path d="M940 2871 c0 -5 7 -11 15 -15 9 -3 15 0 15 9 0 8 -7 15 -15 15 -8 0
-15 -4 -15 -9z"/>
<path d="M1280 2850 c0 -16 5 -30 10 -30 6 0 10 14 10 30 0 17 -4 30 -10 30
-5 0 -10 -13 -10 -30z"/>
<path d="M942 2820 c0 -19 4 -30 13 -30 9 0 13 10 12 27 -3 37 -24 40 -25 3z"/>
<path d="M1200 2841 c0 -5 8 -12 18 -14 16 -4 16 -5 0 -6 -10 0 -18 -8 -18
-16 0 -10 11 -15 35 -15 36 0 48 15 18 23 -17 4 -17 5 0 6 9 0 17 8 17 16 0
10 -11 15 -35 15 -19 0 -35 -4 -35 -9z"/>
<path d="M1310 2829 c0 -6 7 -9 15 -6 19 8 26 -5 14 -23 -6 -10 -9 -11 -9 -2
0 6 -4 12 -10 12 -5 0 -10 -13 -10 -30 0 -16 5 -30 11 -30 6 0 9 7 5 15 -4 11
2 15 24 15 32 0 37 9 18 29 -11 10 -10 11 5 6 12 -5 17 -2 17 9 0 12 -10 16
-40 16 -23 0 -40 -5 -40 -11z"/>
<path d="M1070 2821 c0 -5 6 -12 13 -14 10 -4 10 -6 0 -6 -21 -1 -15 -31 5
-31 14 0 19 8 20 30 0 23 -4 30 -19 30 -10 0 -19 -4 -19 -9z"/>
<path d="M1282 2780 c0 -16 4 -30 9 -30 5 0 9 14 9 30 0 17 -4 30 -8 30 -5 0
-9 -13 -10 -30z"/>
<path d="M1120 2781 c0 -9 33 -21 58 -21 6 0 12 7 12 15 0 10 -11 15 -35 15
-19 0 -35 -4 -35 -9z"/>
<path d="M1200 2770 c0 -5 9 -10 19 -10 11 0 26 -3 35 -6 11 -4 16 -1 16 10 0
12 -10 16 -35 16 -19 0 -35 -4 -35 -10z"/>
<path d="M980 2688 c0 -75 12 -106 31 -77 6 10 9 11 9 2 0 -7 8 -13 18 -13 14
0 19 8 20 29 1 27 -3 30 -36 34 l-37 4 38 1 c41 2 52 22 12 22 -14 0 -25 4
-25 9 0 4 11 6 23 4 21 -4 24 -1 25 25 1 28 -2 30 -39 34 l-39 4 0 -78z m60
43 c0 -4 -11 -6 -25 -3 -14 2 -25 6 -25 8 0 2 11 4 25 4 14 0 25 -4 25 -9z m0
-97 c0 -2 -12 -4 -27 -4 -21 0 -24 3 -14 9 13 8 41 5 41 -5z"/>
<path d="M1340 2761 c0 -5 9 -11 20 -14 13 -3 20 0 20 9 0 8 -9 14 -20 14 -11
0 -20 -4 -20 -9z"/>
<path d="M1070 2744 c0 -8 9 -14 20 -14 11 0 20 4 20 9 0 5 -9 11 -20 14 -13
3 -20 0 -20 -9z"/>
<path d="M1120 2722 c0 -26 4 -29 35 -30 19 -1 35 3 35 8 0 6 -11 10 -25 10
-14 0 -25 4 -25 9 0 4 11 6 25 3 31 -5 33 13 3 22 -40 10 -48 7 -48 -22z"/>
<path d="M1200 2730 c0 -7 7 -10 15 -6 11 4 15 -1 15 -19 0 -22 4 -25 35 -25
41 0 47 17 8 23 l-28 4 28 2 c47 2 26 25 -26 29 -32 2 -47 0 -47 -8z"/>
<path d="M1393 2680 c0 -36 2 -50 4 -32 2 17 2 47 0 65 -2 17 -4 3 -4 -33z"/>
<path d="M1310 2720 c0 -5 5 -10 10 -10 6 0 10 5 10 10 0 6 -4 10 -10 10 -5 0
-10 -4 -10 -10z"/>
<path d="M1340 2700 c0 -23 4 -30 20 -30 11 0 20 5 20 10 0 6 -4 10 -10 10 -5
0 -10 5 -10 11 0 5 5 7 10 4 6 -3 10 1 10 9 0 9 -9 16 -20 16 -16 0 -20 -7
-20 -30z"/>
<path d="M1070 2711 c0 -5 6 -12 13 -14 10 -4 10 -6 0 -6 -8 -1 -13 -14 -13
-32 0 -28 3 -31 25 -27 20 4 25 1 24 -16 0 -11 -3 -15 -6 -8 -5 14 -43 17 -43
3 0 -9 40 -20 70 -19 8 0 30 -3 48 -6 25 -5 32 -3 32 9 0 11 -11 15 -40 15
-32 0 -40 4 -39 18 0 10 3 12 6 5 2 -7 13 -13 22 -13 13 0 18 8 19 30 0 23 -4
30 -19 30 -21 0 -26 -16 -6 -23 6 -3 -10 -5 -38 -5 -27 0 -42 2 -32 5 26 7 24
63 -3 63 -11 0 -20 -4 -20 -9z"/>
<path d="M486 2702 c-5 -9 59 -10 68 -2 2 3 -11 6 -29 7 -19 2 -36 -1 -39 -5z"/>
<path d="M1200 2680 c0 -16 4 -30 8 -30 5 0 9 14 10 30 0 17 -4 30 -9 30 -5 0
-9 -13 -9 -30z"/>
<path d="M1310 2670 c0 -16 5 -30 10 -30 6 0 10 14 10 30 0 17 -4 30 -10 30
-5 0 -10 -13 -10 -30z"/>
<path d="M1120 2670 c0 -5 5 -10 10 -10 6 0 10 5 10 10 0 6 -4 10 -10 10 -5 0
-10 -4 -10 -10z"/>
<path d="M520 2666 c0 -2 16 -6 35 -8 19 -2 35 0 35 4 0 4 -16 8 -35 8 -19 0
-35 -2 -35 -4z"/>
<path d="M1230 2661 c0 -5 8 -12 18 -14 16 -4 16 -5 0 -6 -10 0 -18 -8 -18
-16 0 -10 11 -15 35 -15 19 0 35 5 35 10 0 6 -7 10 -15 10 -8 0 -15 4 -15 10
0 5 7 7 15 4 9 -4 15 0 15 10 0 12 -10 16 -35 16 -19 0 -35 -4 -35 -9z"/>
<path d="M1340 2651 c0 -6 9 -9 20 -8 11 1 20 5 20 9 0 4 -9 8 -20 8 -11 0
-20 -4 -20 -9z"/>
<path d="M1200 2630 c0 -5 5 -10 10 -10 6 0 10 5 10 10 0 6 -4 10 -10 10 -5 0
-10 -4 -10 -10z"/>
<path d="M1310 2620 c0 -5 5 -10 10 -10 6 0 10 5 10 10 0 6 -4 10 -10 10 -5 0
-10 -4 -10 -10z"/>
<path d="M1340 2600 c0 -16 5 -30 10 -30 6 0 10 14 10 30 0 17 -4 30 -10 30
-5 0 -10 -13 -10 -30z"/>
<path d="M176 2609 c5 -9 -1 -10 -20 -5 -18 4 -26 2 -26 -6 1 -41 50 -62 252
-109 142 -33 168 -35 168 -15 0 8 6 17 13 19 10 4 10 6 0 6 -7 1 -13 7 -13 15
0 16 -21 26 -55 26 -29 0 -271 56 -303 70 -17 7 -21 7 -16 -1z"/>
<path d="M1230 2590 c0 -5 6 -10 13 -10 6 0 29 -3 50 -6 30 -5 37 -4 37 10 0
13 -10 16 -50 16 -27 0 -50 -4 -50 -10z"/>
<path d="M610 2570 c-13 -8 -13 -10 2 -10 9 0 20 5 23 10 8 13 -5 13 -25 0z"/>
<path d="M593 2483 c9 -2 23 -2 30 0 6 3 -1 5 -18 5 -16 0 -22 -2 -12 -5z"/>
<path d="M648 2473 c7 -3 16 -2 19 1 4 3 -2 6 -13 5 -11 0 -14 -3 -6 -6z"/>
<path d="M680 2470 c0 -7 48 -20 78 -20 25 0 9 8 -36 18 -23 6 -42 6 -42 2z"/>
<path d="M1730 2471 c0 -15 46 -22 72 -11 21 10 21 10 -7 6 -16 -2 -38 0 -47
5 -11 6 -18 6 -18 0z"/>
<path d="M2208 2452 c-49 -8 -88 -18 -88 -22 0 -8 148 16 182 30 30 12 11 10
-94 -8z"/>
<path d="M788 2443 c6 -2 18 -2 25 0 6 3 1 5 -13 5 -14 0 -19 -2 -12 -5z"/>
<path d="M1618 2443 c7 -3 16 -2 19 1 4 3 -2 6 -13 5 -11 0 -14 -3 -6 -6z"/>
<path d="M1838 2443 c12 -2 32 -2 45 0 12 2 2 4 -23 4 -25 0 -35 -2 -22 -4z"/>
<path d="M1960 2429 c0 -5 5 -7 10 -4 6 3 10 8 10 11 0 2 -4 4 -10 4 -5 0 -10
-5 -10 -11z"/>
<path d="M2030 2430 c-11 -7 -7 -10 17 -10 17 0 35 5 38 10 8 13 -35 13 -55 0z"/>
<path d="M2388 2423 c7 -3 16 -2 19 1 4 3 -2 6 -13 5 -11 0 -14 -3 -6 -6z"/>
<path d="M948 2413 c7 -3 16 -2 19 1 4 3 -2 6 -13 5 -11 0 -14 -3 -6 -6z"/>
<path d="M1798 2413 c7 -3 16 -2 19 1 4 3 -2 6 -13 5 -11 0 -14 -3 -6 -6z"/>
<path d="M2348 2413 c7 -3 16 -2 19 1 4 3 -2 6 -13 5 -11 0 -14 -3 -6 -6z"/>
<path d="M1878 2403 c7 -3 16 -2 19 1 4 3 -2 6 -13 5 -11 0 -14 -3 -6 -6z"/>
<path d="M1973 2393 c15 -2 37 -2 50 0 12 2 0 4 -28 4 -27 0 -38 -2 -22 -4z"/>
<path d="M705 2358 c12 -40 58 -132 82 -164 53 -72 144 -114 268 -124 152 -14
265 20 340 100 22 23 48 51 57 61 17 18 16 18 -14 12 -21 -4 -29 -3 -24 5 4 7
-5 9 -31 6 -30 -4 -35 -3 -23 6 12 8 6 9 -25 5 -27 -4 -35 -3 -26 3 8 6 -12 8
-58 4 -44 -3 -71 -1 -71 5 0 6 -59 23 -131 39 -105 23 -133 33 -140 49 -8 17
-9 16 -6 -7 4 -25 2 -26 -17 -16 -19 11 -145 38 -174 38 -9 0 -11 -7 -7 -22z
m252 -39 c15 -7 44 -15 63 -19 34 -8 35 -8 5 -9 -16 0 -48 8 -70 18 -44 21
-43 28 2 10z m171 -36 c-10 -2 -26 -2 -35 0 -10 3 -2 5 17 5 19 0 27 -2 18 -5z"/>
<path d="M1478 2373 c7 -3 16 -2 19 1 4 3 -2 6 -13 5 -11 0 -14 -3 -6 -6z"/>
<path d="M1528 2363 c7 -3 16 -2 19 1 4 3 -2 6 -13 5 -11 0 -14 -3 -6 -6z"/>
<path d="M1578 2353 c6 -2 18 -2 25 0 6 3 1 5 -13 5 -14 0 -19 -2 -12 -5z"/>
<path d="M1628 2343 c6 -2 18 -2 25 0 6 3 1 5 -13 5 -14 0 -19 -2 -12 -5z"/>
<path d="M1683 2333 c9 -2 23 -2 30 0 6 3 -1 5 -18 5 -16 0 -22 -2 -12 -5z"/>
<path d="M2163 2333 c9 -2 23 -2 30 0 6 3 -1 5 -18 5 -16 0 -22 -2 -12 -5z"/>
<path d="M1743 2323 c9 -2 23 -2 30 0 6 3 -1 5 -18 5 -16 0 -22 -2 -12 -5z"/>
<path d="M1803 2313 c9 -2 23 -2 30 0 6 3 -1 5 -18 5 -16 0 -22 -2 -12 -5z"/>
<path d="M1873 2303 c9 -2 25 -2 35 0 9 3 1 5 -18 5 -19 0 -27 -2 -17 -5z"/>
<path d="M1228 2283 c6 -2 18 -2 25 0 6 3 1 5 -13 5 -14 0 -19 -2 -12 -5z"/>
<path d="M1498 2233 c7 -3 16 -2 19 1 4 3 -2 6 -13 5 -11 0 -14 -3 -6 -6z"/>
<path d="M1548 2223 c7 -3 16 -2 19 1 4 3 -2 6 -13 5 -11 0 -14 -3 -6 -6z"/>
<path d="M1608 2213 c7 -3 16 -2 19 1 4 3 -2 6 -13 5 -11 0 -14 -3 -6 -6z"/>
<path d="M1668 2203 c6 -2 18 -2 25 0 6 3 1 5 -13 5 -14 0 -19 -2 -12 -5z"/>
<path d="M1728 2193 c6 -2 18 -2 25 0 6 3 1 5 -13 5 -14 0 -19 -2 -12 -5z"/>
<path d="M2248 2193 c7 -3 16 -2 19 1 4 3 -2 6 -13 5 -11 0 -14 -3 -6 -6z"/>
<path d="M1798 2183 c6 -2 18 -2 25 0 6 3 1 5 -13 5 -14 0 -19 -2 -12 -5z"/>
<path d="M2198 2183 c7 -3 16 -2 19 1 4 3 -2 6 -13 5 -11 0 -14 -3 -6 -6z"/>
<path d="M1868 2173 c6 -2 18 -2 25 0 6 3 1 5 -13 5 -14 0 -19 -2 -12 -5z"/>
<path d="M2138 2173 c6 -2 18 -2 25 0 6 3 1 5 -13 5 -14 0 -19 -2 -12 -5z"/>
<path d="M1973 2163 c26 -2 67 -2 90 0 23 2 2 3 -48 3 -49 0 -68 -1 -42 -3z"/>
</g>
</svg>
